PathFileType	3	(X/Y/Z)	RCH0000002 BBF 08.c3d
DataRate	CameraRate	NumFrames	NumMarkers	Units	OrigDataRate	OrigDataStartFrame	OrigNumFrames
100.0	100.0	17	23	mm	100.0	306	516
Frame#	Time	MAN			LASI			RASI			LPAT			LKNE			LANK			LMED			LTOE			RKNE			RANK			RMED			RHEE			RTOE			LHEE			RPAT			RPSI			T2			LPSI			T10			RTHI			LTHI			RTIB			LTIB			
		X1	Y1	Z1	X2	Y2	Z2	X3	Y3	Z3	X4	Y4	Z4	X5	Y5	Z5	X6	Y6	Z6	X7	Y7	Z7	X8	Y8	Z8	X9	Y9	Z9	X10	Y10	Z10	X11	Y11	Z11	X12	Y12	Z12	X13	Y13	Z13	X14	Y14	Z14	X15	Y15	Z15	X16	Y16	Z16	X17	Y17	Z17	X18	Y18	Z18	X19	Y19	Z19	X20	Y20	Z20	X21	Y21	Z21	X22	Y22	Z22	X23	Y23	Z23	

306	3.050	174.48970	8.28608	954.98582	151.15171	34.52392	641.28547	132.41712	-138.36323	676.78627	254.96836	-7.29941	414.18184	221.52444	49.15085	363.88145	160.05757	67.73427	103.71590	169.84847	-3.22374	111.46143	210.95384	36.01525	93.34510	6.85980	-157.73401	364.92474	-78.54876	-161.39394	99.83547	-89.90798	-94.02342	113.38115	-120.59937	-133.51639	139.33889	-38.59040	-122.08952	78.94561	126.29476	22.78902	130.80734	58.77368	-103.49816	382.81494	30.50389	-62.09109	714.99207	43.40695	-14.33296	986.64101	35.30586	6.12755	695.96986	45.64142	-17.71129	799.65836	57.81701	-222.02506	467.92183	171.38645	120.05287	478.01975	-36.12593	-226.52922	252.15064	193.36167	119.56872	260.54195	
307	3.060	185.90493	9.94368	951.94220	163.36626	33.79931	638.94906	142.21404	-138.71996	675.19482	267.76119	-8.71006	412.91587	236.38908	48.82251	362.45397	185.67399	70.61968	99.57505	194.02766	-0.50133	106.97178	236.39561	38.44447	90.88198	13.15358	-157.75179	364.21432	-77.41384	-161.27572	100.50726	-87.85491	-93.80101	114.20473	-118.44433	-132.92629	140.85485	-37.47686	-122.26684	78.72398	149.93502	25.79169	124.91043	65.80120	-103.90694	380.95685	40.85775	-60.77557	712.35483	54.73944	-11.76295	984.38787	46.59291	7.33730	692.86111	56.20404	-16.29703	797.28943	64.76249	-222.12207	466.84285	185.90036	119.45847	476.59820	-32.78619	-226.34602	252.27596	213.41648	120.60587	258.35300	
308	3.070	197.45314	11.66323	948.97645	175.82695	33.19764	636.60768	152.47509	-138.96051	673.43805	279.86823	-10.35737	410.90588	250.45905	48.33377	360.48804	209.04064	73.28058	95.50182	215.81705	2.00735	102.54998	259.43308	40.55091	88.26386	20.36670	-157.62885	363.24364	-75.79867	-161.24352	101.25894	-85.36818	-93.66804	115.09334	-115.69285	-132.45128	142.53081	-36.08251	-122.47081	78.43527	171.42194	28.68700	119.27563	73.73480	-104.20845	378.85026	51.63108	-59.52386	709.70728	66.13977	-8.93423	981.97799	58.24543	8.51425	689.86127	67.18123	-14.85267	794.82154	72.42957	-222.09197	465.59288	200.21008	118.77016	474.82393	-28.57653	-226.11618	252.34919	232.24610	121.42859	255.88369	
309	3.080	209.11913	13.43686	946.16672	188.48796	32.76398	634.34939	163.20328	-139.06867	671.53308	291.32452	-12.13291	408.25821	263.73988	47.76388	358.07100	229.78257	75.69755	91.56721	234.89522	4.28836	98.30451	279.73571	42.32935	85.54699	28.60702	-157.35568	361.98358	-73.55876	-161.30787	102.10859	-82.32514	-93.63754	116.06755	-112.18288	-132.11590	144.38676	-34.31398	-122.70187	78.08513	190.43248	31.45063	114.04124	82.69435	-104.40533	376.48458	62.81320	-58.36394	707.10523	77.59880	-5.88911	979.48481	70.22804	9.63945	687.05891	78.57315	-13.42636	792.32743	80.87426	-221.92074	464.17068	214.28315	118.06489	472.77405	-23.33013	-225.84545	252.35786	249.68036	122.06674	253.20503	
310	3.090	220.88412	15.25207	943.58497	201.28509	32.54375	632.26338	174.38554	-139.02653	669.49953	302.15158	-13.88104	405.11543	276.21368	47.22710	355.32109	247.62848	77.88665	87.83745	251.05721	6.36158	94.33977	297.08284	43.81756	82.79810	37.95864	-156.92316	360.41305	-70.55846	-161.46265	103.07608	-78.60522	-93.70606	117.14653	-107.76158	-131.92191	146.43717	-32.07812	-122.95277	77.68917	206.74459	34.08230	109.32445	92.77286	-104.49437	373.85863	74.37596	-57.32619	704.60763	89.10649	-2.68187	976.98605	82.48588	10.68948	684.54401	90.36358	-12.06852	789.88415	90.13933	-221.59323	462.57776	228.04522	117.44446	470.54971	-16.90780	-225.53148	252.29119	265.55625	122.58950	250.39802	
311	3.100	232.72600	17.09214	941.29587	214.13821	32.58087	630.43732	185.99379	-138.81426	667.36163	312.35231	-15.40900	401.64894	287.83421	46.86438	352.38064	262.44176	79.89523	84.37360	264.23542	8.27616	90.75210	311.38580	45.08817	80.09201	48.47512	-156.32279	358.52529	-66.67821	-161.68419	104.18510	-74.09523	-93.85229	118.34903	-102.29496	-131.84595	148.69164	-29.28336	-123.20872	77.27612	220.26126	36.60565	105.21633	104.02786	-104.46564	370.98631	86.27577	-56.44144	702.27671	100.65186	0.62334	974.56248	94.94791	11.63774	682.40585	102.51972	-10.82878	787.57175	100.25285	-221.09369	460.82171	241.37763	117.02934	468.27045	-9.20911	-225.16303	252.14520	279.73380	123.10083	247.54868	
312	3.110	244.61989	18.93685	939.35582	226.95541	32.91572	628.95363	197.98654	-138.41019	665.15031	321.90886	-16.50487	398.04743	298.52823	46.82988	349.40607	274.23751	81.79299	81.23025	274.50596	10.10166	87.62522	322.69676	46.23547	77.50705	60.17572	-155.54710	356.33343	-61.81972	-161.93360	105.46433	-68.69410	-94.03878	119.69435	-95.67640	-131.84162	151.15582	-25.83981	-123.44917	76.88965	231.02111	39.06444	101.77843	116.47651	-104.30280	367.90128	98.45634	-55.73771	700.17675	112.22299	3.95499	972.29613	107.53137	12.45711	680.72922	114.99303	-9.75258	785.47112	111.22728	-220.40663	458.91997	254.12373	116.94872	466.06561	-0.17886	-224.72071	251.92770	292.11252	123.72869	244.74346	
313	3.120	256.53876	20.76346	937.81189	239.63874	33.58296	627.88504	210.31078	-137.79159	662.90465	330.78389	-16.96169	394.50236	308.20318	47.27340	346.55534	283.18112	83.65891	78.45306	282.07901	11.91559	85.02489	331.20249	47.35936	75.11900	73.04478	-154.59013	353.87435	-55.90905	-162.16147	106.94732	-62.31660	-94.21620	121.20265	-87.83321	-131.84527	153.83212	-21.65806	-123.65069	76.58829	239.19291	41.51450	99.04062	130.09458	-103.98425	364.66021	110.85212	-55.23614	698.37168	123.80713	7.23712	970.26776	120.14738	13.12393	679.58915	127.72092	-8.87755	783.66101	123.05921	-219.51804	456.90339	266.10423	117.32703	464.06392	10.19138	-224.17915	251.66205	302.64440	124.60873	242.06476	
314	3.130	268.45423	22.54802	936.70074	252.09088	34.60915	627.28974	222.90429	-136.93607	660.67254	338.92539	-16.60445	391.19188	316.76019	48.32105	343.97461	289.56761	85.56606	76.07534	287.27446	13.78919	82.99369	337.20320	48.54889	72.99440	87.03421	-153.44787	351.21020	-48.89720	-162.31422	108.67055	-54.89597	-94.32936	122.89436	-78.73080	-131.78437	156.71969	-16.64747	-123.79019	76.44276	245.05438	44.01178	97.00028	144.81940	-103.48504	361.34353	123.39192	-54.94660	696.92153	135.39085	10.39282	968.55381	132.70693	13.62254	679.04490	140.62955	-8.22997	782.21426	135.72966	-218.41669	454.81875	277.13941	118.26870	462.38248	21.86622	-223.51014	251.38886	311.33995	125.86437	239.58649	
315	3.140	280.33760	24.26689	936.04744	264.22219	36.01043	627.20685	235.69801	-135.82359	658.51019	346.27447	-15.31582	388.26537	324.11034	50.05708	341.78566	293.78456	87.56665	74.11475	290.48667	15.77350	81.54691	341.07980	49.86841	71.18452	102.06838	-152.11847	348.42693	-40.75856	-162.34044	110.66940	-46.38505	-94.32356	124.78817	-68.37369	-131.58664	159.81357	-10.71447	-123.84762	76.53081	248.95869	46.59813	95.62338	160.55601	-102.77880	358.05358	136.00275	-54.86403	695.87813	146.96023	13.34799	967.22278	145.12684	13.94947	679.13414	153.63741	-7.82196	781.19350	149.20497	-217.09522	452.72934	287.07456	119.84318	461.11618	34.77324	-222.68612	251.16483	318.26585	127.58691	237.36956	
316	3.150	292.16082	25.89831	935.86422	275.95722	37.79049	627.65264	248.61881	-134.43885	656.48020	352.77548	-13.05576	385.83113	330.19152	52.51004	340.07589	296.26549	89.68032	72.57124	292.14435	17.88830	80.67076	343.25464	51.34821	69.72122	118.05097	-150.60218	345.62983	-31.48728	-162.19625	112.97246	-36.75596	-94.15026	126.89795	-56.80303	-131.18850	163.10259	-3.76182	-123.80729	76.92953	251.29480	49.28751	94.84807	177.18585	-101.83983	354.90976	148.61330	-54.96619	695.28084	158.50117	16.03543	966.33140	157.33498	14.11647	679.86805	166.65944	-7.64951	780.64687	163.43825	-215.55090	450.71321	295.80400	122.07307	460.32917	48.81244	-221.68335	251.05835	323.53503	129.81927	235.45795	
317	3.160	303.89766	27.42385	936.14944	287.23980	39.93919	628.61834	261.59230	-132.77359	654.64830	358.38723	-9.87112	383.94903	334.98314	55.64573	338.89238	297.44252	91.88754	71.42736	292.67178	20.11591	80.32382	344.15216	52.98101	68.61526	134.87266	-148.90124	342.93631	-21.09221	-161.84858	115.59463	-25.99829	-93.77096	129.22861	-44.09044	-130.54125	166.56655	4.31074	-123.65755	77.70619	252.44865	52.05564	94.59098	194.57683	-100.64496	352.04121	161.15704	-55.21356	695.15249	169.99964	18.39891	965.92098	169.27411	14.15142	681.22853	179.61145	-7.69199	780.60408	178.37107	-213.78611	448.85876	303.28903	124.92790	460.04920	63.86723	-220.48422	251.14227	327.29213	132.54660	233.87627	
318	3.170	315.52471	28.82973	936.88678	298.03624	42.43213	630.06984	274.54580	-130.82867	653.07880	363.09378	-5.89279	382.62959	338.51635	59.36875	338.24087	297.70662	94.12979	70.65114	292.45698	22.40111	80.44182	344.16507	54.72446	67.85729	152.41900	-147.01952	340.46670	-9.59107	-161.27602	118.53025	-14.11609	-93.15888	131.77170	-30.32883	-129.61432	170.17297	13.60379	-123.38881	78.90862	252.77169	54.83588	94.75609	212.59367	-99.17529	349.57762	173.57465	-55.55182	695.49650	181.44203	20.39691	966.01432	180.90403	14.09683	683.16775	192.41436	-7.91324	781.07352	193.93514	-211.80837	447.25816	309.56625	128.32527	460.26581	79.81554	-219.07846	251.48472	329.69863	135.69577	232.62946	
319	3.180	327.02235	30.10768	938.04484	308.33613	45.23138	631.94955	287.41138	-128.61517	651.82920	366.91362	-1.31999	381.83922	340.87817	63.53246	338.08954	297.38125	96.31640	70.20097	291.83021	24.65743	80.94524	343.63040	56.50894	67.42100	170.57748	-144.96242	338.33437	2.99529	-160.46739	121.74751	-1.12418	-92.29840	134.50171	-15.62098	-128.39539	173.87430	24.21375	-122.99044	80.55685	252.56057	57.52314	95.24503	231.10730	-97.41803	347.63935	185.81562	-55.91660	696.29515	192.81555	22.00562	966.61349	192.20175	14.00573	685.61043	204.99796	-8.26419	782.04067	210.05385	-209.63033	445.99952	314.74459	132.13965	460.93263	96.53997	-217.46314	252.13923	330.92126	139.14381	231.70476	
320	3.190	338.37559	31.25541	939.57751	318.15085	48.28747	634.18033	300.12868	-126.15458	650.94464	369.90555	3.60566	381.51052	342.20912	67.95622	338.37678	296.71151	98.33744	70.03145	291.05358	26.77924	81.74845	342.81676	58.24920	67.26770	189.24326	-142.73693	336.63622	16.64763	-159.41870	125.18549	12.95580	-91.18274	137.37385	-0.06763	-126.88781	177.60648	36.22674	-122.44747	82.63736	252.04906	59.98592	95.96705	250.00246	-95.36827	346.32793	197.83927	-56.24017	697.50964	204.10855	23.22087	967.69901	203.16002	13.93566	688.45846	217.30385	-8.68691	783.46822	226.64366	-207.26953	445.15867	318.99164	136.21720	461.97358	113.93586	-215.64169	253.13614	331.12590	142.73391	231.07572	
321	3.200	349.57457	32.27650	941.42498	327.51015	51.54254	636.67102	312.64754	-123.47766	650.45281	372.17026	8.63207	381.55512	342.69474	72.44684	339.02128	295.86724	100.08056	70.09850	290.32029	28.65762	82.76855	341.92247	59.85805	67.35132	208.32323	-140.35189	335.44518	31.35145	-158.12932	128.75493	28.09894	-89.81056	140.32419	16.24338	-125.10612	181.28947	49.71189	-121.73798	85.10127	251.41043	62.08523	96.84704	269.18279	-93.03060	345.71841	209.61500	-56.45891	699.08153	215.31106	24.05867	969.23027	213.78442	13.94145	691.59737	229.28735	-9.11958	785.29792	243.61559	-204.74814	444.79200	322.51212	140.39420	463.29206	131.91671	-213.62214	254.47674	330.47705	146.29620	230.70697	
322	3.210	360.61485	33.17985	943.51559	336.45745	54.93419	639.32296	324.93003	-120.62226	650.36014	373.84697	13.52869	381.87650	342.55219	76.82105	339.93263	294.95640	101.44937	70.36285	289.76091	30.19777	83.93261	341.08196	61.26007	67.62300	227.73843	-137.81839	334.80526	47.09799	-156.59837	132.34296	44.27980	-88.18239	143.27250	33.24509	-123.07077	184.83045	64.71505	-120.83205	87.86710	250.76683	63.69732	97.82994	288.57336	-90.42040	345.85445	221.12208	-56.52061	700.93583	226.41516	24.55413	971.14762	224.08976	14.06818	694.90378	240.91838	-9.50173	787.45403	260.87713	-202.09259	444.93112	325.52271	144.51561	464.78204	150.41660	-211.41517	256.13133	329.14107	149.66984	230.55912	
